<mxfile host="Electron" modified="2023-09-21T16:15:12.212Z" agent="Mozilla/5.0 (Windows NT 10.0; Win64; x64) AppleWebKit/537.36 (KHTML, like Gecko) draw.io/21.6.8 Chrome/114.0.5735.289 Electron/25.5.0 Safari/537.36" etag="Ta0yUpVeNSaQBQgue8rS" version="21.6.8" type="device">
  <diagram name="Page-1" id="dyV1vCTJHISNvgEBtLhY">
    <mxGraphModel dx="2330" dy="877" grid="1" gridSize="10" guides="1" tooltips="1" connect="1" arrows="1" fold="1" page="1" pageScale="1" pageWidth="850" pageHeight="1100" math="0" shadow="0">
      <root>
        <mxCell id="0" />
        <mxCell id="1" parent="0" />
        <mxCell id="SgWpKH_g_rVidPouxBbm-1" value="" style="shape=or;whiteSpace=wrap;html=1;rotation=-90;" vertex="1" parent="1">
          <mxGeometry x="62.5" y="227.5" width="25" height="50" as="geometry" />
        </mxCell>
        <mxCell id="SgWpKH_g_rVidPouxBbm-2" value="" style="ellipse;whiteSpace=wrap;html=1;aspect=fixed;" vertex="1" parent="1">
          <mxGeometry x="60" y="220" width="30" height="30" as="geometry" />
        </mxCell>
        <mxCell id="SgWpKH_g_rVidPouxBbm-4" value="Admin" style="rounded=0;whiteSpace=wrap;html=1;" vertex="1" parent="1">
          <mxGeometry x="40" y="270" width="70" height="30" as="geometry" />
        </mxCell>
        <mxCell id="SgWpKH_g_rVidPouxBbm-8" style="edgeStyle=orthogonalEdgeStyle;rounded=0;orthogonalLoop=1;jettySize=auto;html=1;entryX=0;entryY=0.5;entryDx=0;entryDy=0;" edge="1" parent="1" target="SgWpKH_g_rVidPouxBbm-6">
          <mxGeometry relative="1" as="geometry">
            <mxPoint x="110" y="285" as="sourcePoint" />
          </mxGeometry>
        </mxCell>
        <mxCell id="SgWpKH_g_rVidPouxBbm-15" style="edgeStyle=orthogonalEdgeStyle;rounded=0;orthogonalLoop=1;jettySize=auto;html=1;entryX=0.5;entryY=1;entryDx=0;entryDy=0;" edge="1" parent="1" source="SgWpKH_g_rVidPouxBbm-6" target="SgWpKH_g_rVidPouxBbm-12">
          <mxGeometry relative="1" as="geometry" />
        </mxCell>
        <mxCell id="SgWpKH_g_rVidPouxBbm-16" value="include" style="edgeLabel;html=1;align=center;verticalAlign=middle;resizable=0;points=[];" vertex="1" connectable="0" parent="SgWpKH_g_rVidPouxBbm-15">
          <mxGeometry x="0.0267" relative="1" as="geometry">
            <mxPoint as="offset" />
          </mxGeometry>
        </mxCell>
        <mxCell id="SgWpKH_g_rVidPouxBbm-19" style="edgeStyle=orthogonalEdgeStyle;rounded=0;orthogonalLoop=1;jettySize=auto;html=1;entryX=0.5;entryY=1;entryDx=0;entryDy=0;" edge="1" parent="1" source="SgWpKH_g_rVidPouxBbm-6" target="SgWpKH_g_rVidPouxBbm-17">
          <mxGeometry relative="1" as="geometry" />
        </mxCell>
        <mxCell id="SgWpKH_g_rVidPouxBbm-31" style="edgeStyle=orthogonalEdgeStyle;rounded=0;orthogonalLoop=1;jettySize=auto;html=1;entryX=0.5;entryY=1;entryDx=0;entryDy=0;" edge="1" parent="1" source="SgWpKH_g_rVidPouxBbm-6" target="SgWpKH_g_rVidPouxBbm-30">
          <mxGeometry relative="1" as="geometry" />
        </mxCell>
        <mxCell id="SgWpKH_g_rVidPouxBbm-43" style="edgeStyle=orthogonalEdgeStyle;rounded=0;orthogonalLoop=1;jettySize=auto;html=1;entryX=0.5;entryY=1;entryDx=0;entryDy=0;" edge="1" parent="1" source="SgWpKH_g_rVidPouxBbm-6" target="SgWpKH_g_rVidPouxBbm-42">
          <mxGeometry relative="1" as="geometry" />
        </mxCell>
        <mxCell id="SgWpKH_g_rVidPouxBbm-47" style="edgeStyle=orthogonalEdgeStyle;rounded=0;orthogonalLoop=1;jettySize=auto;html=1;" edge="1" parent="1" source="SgWpKH_g_rVidPouxBbm-6" target="SgWpKH_g_rVidPouxBbm-46">
          <mxGeometry relative="1" as="geometry" />
        </mxCell>
        <mxCell id="SgWpKH_g_rVidPouxBbm-57" style="edgeStyle=orthogonalEdgeStyle;rounded=0;orthogonalLoop=1;jettySize=auto;html=1;" edge="1" parent="1" source="SgWpKH_g_rVidPouxBbm-6" target="SgWpKH_g_rVidPouxBbm-54">
          <mxGeometry relative="1" as="geometry" />
        </mxCell>
        <mxCell id="SgWpKH_g_rVidPouxBbm-67" value="include" style="edgeLabel;html=1;align=center;verticalAlign=middle;resizable=0;points=[];" vertex="1" connectable="0" parent="SgWpKH_g_rVidPouxBbm-57">
          <mxGeometry x="-0.8768" y="2" relative="1" as="geometry">
            <mxPoint x="37" y="2" as="offset" />
          </mxGeometry>
        </mxCell>
        <mxCell id="SgWpKH_g_rVidPouxBbm-6" value="Đăng nhập" style="ellipse;whiteSpace=wrap;html=1;" vertex="1" parent="1">
          <mxGeometry x="170" y="260" width="100" height="50" as="geometry" />
        </mxCell>
        <mxCell id="SgWpKH_g_rVidPouxBbm-12" value="Quản lý tài khoản" style="ellipse;whiteSpace=wrap;html=1;" vertex="1" parent="1">
          <mxGeometry x="165" y="130" width="110" height="40" as="geometry" />
        </mxCell>
        <mxCell id="SgWpKH_g_rVidPouxBbm-22" style="edgeStyle=orthogonalEdgeStyle;rounded=0;orthogonalLoop=1;jettySize=auto;html=1;entryX=0.5;entryY=1;entryDx=0;entryDy=0;" edge="1" parent="1" source="SgWpKH_g_rVidPouxBbm-17" target="SgWpKH_g_rVidPouxBbm-21">
          <mxGeometry relative="1" as="geometry" />
        </mxCell>
        <mxCell id="SgWpKH_g_rVidPouxBbm-23" value="extend" style="edgeLabel;html=1;align=center;verticalAlign=middle;resizable=0;points=[];" vertex="1" connectable="0" parent="SgWpKH_g_rVidPouxBbm-22">
          <mxGeometry x="0.048" y="-4" relative="1" as="geometry">
            <mxPoint as="offset" />
          </mxGeometry>
        </mxCell>
        <mxCell id="SgWpKH_g_rVidPouxBbm-25" style="edgeStyle=orthogonalEdgeStyle;rounded=0;orthogonalLoop=1;jettySize=auto;html=1;" edge="1" parent="1" source="SgWpKH_g_rVidPouxBbm-17" target="SgWpKH_g_rVidPouxBbm-24">
          <mxGeometry relative="1" as="geometry" />
        </mxCell>
        <mxCell id="SgWpKH_g_rVidPouxBbm-26" value="extend" style="edgeLabel;html=1;align=center;verticalAlign=middle;resizable=0;points=[];" vertex="1" connectable="0" parent="SgWpKH_g_rVidPouxBbm-25">
          <mxGeometry x="-0.1262" y="1" relative="1" as="geometry">
            <mxPoint as="offset" />
          </mxGeometry>
        </mxCell>
        <mxCell id="SgWpKH_g_rVidPouxBbm-28" style="edgeStyle=orthogonalEdgeStyle;rounded=0;orthogonalLoop=1;jettySize=auto;html=1;" edge="1" parent="1" source="SgWpKH_g_rVidPouxBbm-17" target="SgWpKH_g_rVidPouxBbm-27">
          <mxGeometry relative="1" as="geometry">
            <Array as="points">
              <mxPoint x="365" y="110" />
              <mxPoint x="200" y="110" />
            </Array>
          </mxGeometry>
        </mxCell>
        <mxCell id="SgWpKH_g_rVidPouxBbm-29" value="extend" style="edgeLabel;html=1;align=center;verticalAlign=middle;resizable=0;points=[];" vertex="1" connectable="0" parent="SgWpKH_g_rVidPouxBbm-28">
          <mxGeometry x="0.2205" y="2" relative="1" as="geometry">
            <mxPoint as="offset" />
          </mxGeometry>
        </mxCell>
        <mxCell id="SgWpKH_g_rVidPouxBbm-17" value="Quản lý user" style="ellipse;whiteSpace=wrap;html=1;" vertex="1" parent="1">
          <mxGeometry x="310" y="130" width="110" height="40" as="geometry" />
        </mxCell>
        <mxCell id="SgWpKH_g_rVidPouxBbm-21" value="Ban/Gỡ ban" style="ellipse;whiteSpace=wrap;html=1;" vertex="1" parent="1">
          <mxGeometry x="255" y="40" width="110" height="40" as="geometry" />
        </mxCell>
        <mxCell id="SgWpKH_g_rVidPouxBbm-24" value="Thêm Mới" style="ellipse;whiteSpace=wrap;html=1;" vertex="1" parent="1">
          <mxGeometry x="390" y="40" width="110" height="40" as="geometry" />
        </mxCell>
        <mxCell id="SgWpKH_g_rVidPouxBbm-27" value="Cấp quyền" style="ellipse;whiteSpace=wrap;html=1;" vertex="1" parent="1">
          <mxGeometry x="130" y="40" width="110" height="40" as="geometry" />
        </mxCell>
        <mxCell id="SgWpKH_g_rVidPouxBbm-39" style="edgeStyle=orthogonalEdgeStyle;rounded=0;orthogonalLoop=1;jettySize=auto;html=1;entryX=0.5;entryY=1;entryDx=0;entryDy=0;" edge="1" parent="1" source="SgWpKH_g_rVidPouxBbm-30" target="SgWpKH_g_rVidPouxBbm-38">
          <mxGeometry relative="1" as="geometry">
            <Array as="points">
              <mxPoint x="535" y="208" />
            </Array>
          </mxGeometry>
        </mxCell>
        <mxCell id="SgWpKH_g_rVidPouxBbm-41" style="edgeStyle=orthogonalEdgeStyle;rounded=0;orthogonalLoop=1;jettySize=auto;html=1;" edge="1" parent="1" source="SgWpKH_g_rVidPouxBbm-30" target="SgWpKH_g_rVidPouxBbm-40">
          <mxGeometry relative="1" as="geometry" />
        </mxCell>
        <mxCell id="SgWpKH_g_rVidPouxBbm-30" value="Quản lý sản phẩm" style="ellipse;whiteSpace=wrap;html=1;" vertex="1" parent="1">
          <mxGeometry x="410" y="187.5" width="110" height="40" as="geometry" />
        </mxCell>
        <mxCell id="SgWpKH_g_rVidPouxBbm-38" value="Thêm xóa sửa" style="ellipse;whiteSpace=wrap;html=1;" vertex="1" parent="1">
          <mxGeometry x="480" y="110" width="110" height="40" as="geometry" />
        </mxCell>
        <mxCell id="SgWpKH_g_rVidPouxBbm-40" value="Thông kê" style="ellipse;whiteSpace=wrap;html=1;" vertex="1" parent="1">
          <mxGeometry x="600" y="140" width="110" height="40" as="geometry" />
        </mxCell>
        <mxCell id="SgWpKH_g_rVidPouxBbm-56" style="edgeStyle=orthogonalEdgeStyle;rounded=0;orthogonalLoop=1;jettySize=auto;html=1;entryX=0;entryY=0.5;entryDx=0;entryDy=0;" edge="1" parent="1" source="SgWpKH_g_rVidPouxBbm-42" target="SgWpKH_g_rVidPouxBbm-44">
          <mxGeometry relative="1" as="geometry" />
        </mxCell>
        <mxCell id="SgWpKH_g_rVidPouxBbm-42" value="Quản lý danh mục" style="ellipse;whiteSpace=wrap;html=1;" vertex="1" parent="1">
          <mxGeometry x="570" y="220" width="110" height="40" as="geometry" />
        </mxCell>
        <mxCell id="SgWpKH_g_rVidPouxBbm-44" value="Thêm xóa sửa" style="ellipse;whiteSpace=wrap;html=1;" vertex="1" parent="1">
          <mxGeometry x="750" y="220" width="110" height="40" as="geometry" />
        </mxCell>
        <mxCell id="SgWpKH_g_rVidPouxBbm-49" style="edgeStyle=orthogonalEdgeStyle;rounded=0;orthogonalLoop=1;jettySize=auto;html=1;" edge="1" parent="1" source="SgWpKH_g_rVidPouxBbm-46" target="SgWpKH_g_rVidPouxBbm-48">
          <mxGeometry relative="1" as="geometry" />
        </mxCell>
        <mxCell id="SgWpKH_g_rVidPouxBbm-53" style="edgeStyle=orthogonalEdgeStyle;rounded=0;orthogonalLoop=1;jettySize=auto;html=1;" edge="1" parent="1" source="SgWpKH_g_rVidPouxBbm-46" target="SgWpKH_g_rVidPouxBbm-52">
          <mxGeometry relative="1" as="geometry" />
        </mxCell>
        <mxCell id="SgWpKH_g_rVidPouxBbm-46" value="Quản lý thông tin web" style="ellipse;whiteSpace=wrap;html=1;" vertex="1" parent="1">
          <mxGeometry x="300" y="320" width="130" height="50" as="geometry" />
        </mxCell>
        <mxCell id="SgWpKH_g_rVidPouxBbm-48" value="Bật / tắt layout" style="ellipse;whiteSpace=wrap;html=1;" vertex="1" parent="1">
          <mxGeometry x="170" y="410" width="130" height="50" as="geometry" />
        </mxCell>
        <mxCell id="SgWpKH_g_rVidPouxBbm-52" value="Thêm xóa sửa thông tin" style="ellipse;whiteSpace=wrap;html=1;" vertex="1" parent="1">
          <mxGeometry x="410" y="410" width="130" height="50" as="geometry" />
        </mxCell>
        <mxCell id="SgWpKH_g_rVidPouxBbm-59" style="edgeStyle=orthogonalEdgeStyle;rounded=0;orthogonalLoop=1;jettySize=auto;html=1;" edge="1" parent="1" source="SgWpKH_g_rVidPouxBbm-54" target="SgWpKH_g_rVidPouxBbm-58">
          <mxGeometry relative="1" as="geometry" />
        </mxCell>
        <mxCell id="SgWpKH_g_rVidPouxBbm-63" value="extend" style="edgeLabel;html=1;align=center;verticalAlign=middle;resizable=0;points=[];" vertex="1" connectable="0" parent="SgWpKH_g_rVidPouxBbm-59">
          <mxGeometry x="-0.0044" y="1" relative="1" as="geometry">
            <mxPoint as="offset" />
          </mxGeometry>
        </mxCell>
        <mxCell id="SgWpKH_g_rVidPouxBbm-61" style="edgeStyle=orthogonalEdgeStyle;rounded=0;orthogonalLoop=1;jettySize=auto;html=1;entryX=0.5;entryY=0;entryDx=0;entryDy=0;" edge="1" parent="1" source="SgWpKH_g_rVidPouxBbm-54" target="SgWpKH_g_rVidPouxBbm-60">
          <mxGeometry relative="1" as="geometry" />
        </mxCell>
        <mxCell id="SgWpKH_g_rVidPouxBbm-62" value="extend" style="edgeLabel;html=1;align=center;verticalAlign=middle;resizable=0;points=[];" vertex="1" connectable="0" parent="SgWpKH_g_rVidPouxBbm-61">
          <mxGeometry x="-0.2693" y="2" relative="1" as="geometry">
            <mxPoint as="offset" />
          </mxGeometry>
        </mxCell>
        <mxCell id="SgWpKH_g_rVidPouxBbm-54" value="Quản lý order" style="ellipse;whiteSpace=wrap;html=1;" vertex="1" parent="1">
          <mxGeometry x="520" y="340" width="130" height="50" as="geometry" />
        </mxCell>
        <mxCell id="SgWpKH_g_rVidPouxBbm-58" value="Thực hiện order" style="ellipse;whiteSpace=wrap;html=1;" vertex="1" parent="1">
          <mxGeometry x="740" y="340" width="130" height="50" as="geometry" />
        </mxCell>
        <mxCell id="SgWpKH_g_rVidPouxBbm-60" value="Theo dõi order" style="ellipse;whiteSpace=wrap;html=1;" vertex="1" parent="1">
          <mxGeometry x="630" y="430" width="130" height="50" as="geometry" />
        </mxCell>
        <mxCell id="SgWpKH_g_rVidPouxBbm-68" value="" style="shape=or;whiteSpace=wrap;html=1;rotation=-90;" vertex="1" parent="1">
          <mxGeometry x="-127.5" y="847.5" width="25" height="50" as="geometry" />
        </mxCell>
        <mxCell id="SgWpKH_g_rVidPouxBbm-69" value="" style="ellipse;whiteSpace=wrap;html=1;aspect=fixed;" vertex="1" parent="1">
          <mxGeometry x="-130" y="840" width="30" height="30" as="geometry" />
        </mxCell>
        <mxCell id="SgWpKH_g_rVidPouxBbm-113" style="edgeStyle=orthogonalEdgeStyle;rounded=0;orthogonalLoop=1;jettySize=auto;html=1;entryX=0;entryY=0.5;entryDx=0;entryDy=0;" edge="1" parent="1" source="SgWpKH_g_rVidPouxBbm-70" target="SgWpKH_g_rVidPouxBbm-112">
          <mxGeometry relative="1" as="geometry" />
        </mxCell>
        <mxCell id="SgWpKH_g_rVidPouxBbm-120" style="edgeStyle=orthogonalEdgeStyle;rounded=0;orthogonalLoop=1;jettySize=auto;html=1;entryX=0.5;entryY=0;entryDx=0;entryDy=0;" edge="1" parent="1" source="SgWpKH_g_rVidPouxBbm-70" target="SgWpKH_g_rVidPouxBbm-119">
          <mxGeometry relative="1" as="geometry" />
        </mxCell>
        <mxCell id="SgWpKH_g_rVidPouxBbm-126" style="edgeStyle=orthogonalEdgeStyle;rounded=0;orthogonalLoop=1;jettySize=auto;html=1;entryX=0.5;entryY=0;entryDx=0;entryDy=0;" edge="1" parent="1" source="SgWpKH_g_rVidPouxBbm-70" target="SgWpKH_g_rVidPouxBbm-125">
          <mxGeometry relative="1" as="geometry" />
        </mxCell>
        <mxCell id="SgWpKH_g_rVidPouxBbm-129" style="edgeStyle=orthogonalEdgeStyle;rounded=0;orthogonalLoop=1;jettySize=auto;html=1;entryX=0.5;entryY=0;entryDx=0;entryDy=0;" edge="1" parent="1" source="SgWpKH_g_rVidPouxBbm-70" target="SgWpKH_g_rVidPouxBbm-128">
          <mxGeometry relative="1" as="geometry" />
        </mxCell>
        <mxCell id="SgWpKH_g_rVidPouxBbm-70" value="User" style="rounded=0;whiteSpace=wrap;html=1;" vertex="1" parent="1">
          <mxGeometry x="-150" y="890" width="70" height="30" as="geometry" />
        </mxCell>
        <mxCell id="SgWpKH_g_rVidPouxBbm-71" style="edgeStyle=orthogonalEdgeStyle;rounded=0;orthogonalLoop=1;jettySize=auto;html=1;entryX=0;entryY=0.5;entryDx=0;entryDy=0;" edge="1" target="SgWpKH_g_rVidPouxBbm-80" parent="1">
          <mxGeometry relative="1" as="geometry">
            <mxPoint x="100" y="905" as="sourcePoint" />
          </mxGeometry>
        </mxCell>
        <mxCell id="SgWpKH_g_rVidPouxBbm-72" style="edgeStyle=orthogonalEdgeStyle;rounded=0;orthogonalLoop=1;jettySize=auto;html=1;entryX=0.5;entryY=1;entryDx=0;entryDy=0;" edge="1" source="SgWpKH_g_rVidPouxBbm-80" target="SgWpKH_g_rVidPouxBbm-81" parent="1">
          <mxGeometry relative="1" as="geometry" />
        </mxCell>
        <mxCell id="SgWpKH_g_rVidPouxBbm-73" value="include" style="edgeLabel;html=1;align=center;verticalAlign=middle;resizable=0;points=[];" vertex="1" connectable="0" parent="SgWpKH_g_rVidPouxBbm-72">
          <mxGeometry x="0.0267" relative="1" as="geometry">
            <mxPoint as="offset" />
          </mxGeometry>
        </mxCell>
        <mxCell id="SgWpKH_g_rVidPouxBbm-80" value="Đăng nhập" style="ellipse;whiteSpace=wrap;html=1;" vertex="1" parent="1">
          <mxGeometry x="160" y="880" width="100" height="50" as="geometry" />
        </mxCell>
        <mxCell id="SgWpKH_g_rVidPouxBbm-118" style="edgeStyle=orthogonalEdgeStyle;rounded=0;orthogonalLoop=1;jettySize=auto;html=1;" edge="1" parent="1" source="SgWpKH_g_rVidPouxBbm-81" target="SgWpKH_g_rVidPouxBbm-117">
          <mxGeometry relative="1" as="geometry" />
        </mxCell>
        <mxCell id="SgWpKH_g_rVidPouxBbm-81" value="Quản lý tài khoản" style="ellipse;whiteSpace=wrap;html=1;" vertex="1" parent="1">
          <mxGeometry x="155" y="760" width="110" height="40" as="geometry" />
        </mxCell>
        <mxCell id="SgWpKH_g_rVidPouxBbm-112" value="Đăng ký" style="ellipse;whiteSpace=wrap;html=1;" vertex="1" parent="1">
          <mxGeometry x="10" y="880" width="100" height="50" as="geometry" />
        </mxCell>
        <mxCell id="SgWpKH_g_rVidPouxBbm-114" value="Quên mật khẩu" style="ellipse;whiteSpace=wrap;html=1;" vertex="1" parent="1">
          <mxGeometry x="10" y="770" width="100" height="50" as="geometry" />
        </mxCell>
        <mxCell id="SgWpKH_g_rVidPouxBbm-117" value="Sửa / Xóa / Cập nhật" style="ellipse;whiteSpace=wrap;html=1;" vertex="1" parent="1">
          <mxGeometry x="155" y="680" width="110" height="40" as="geometry" />
        </mxCell>
        <mxCell id="SgWpKH_g_rVidPouxBbm-122" style="edgeStyle=orthogonalEdgeStyle;rounded=0;orthogonalLoop=1;jettySize=auto;html=1;entryX=0.5;entryY=0;entryDx=0;entryDy=0;" edge="1" parent="1" source="SgWpKH_g_rVidPouxBbm-119" target="SgWpKH_g_rVidPouxBbm-121">
          <mxGeometry relative="1" as="geometry" />
        </mxCell>
        <mxCell id="SgWpKH_g_rVidPouxBbm-119" value="Tìm kiếm sản phẩm" style="ellipse;whiteSpace=wrap;html=1;" vertex="1" parent="1">
          <mxGeometry x="-340" y="970" width="120" height="50" as="geometry" />
        </mxCell>
        <mxCell id="SgWpKH_g_rVidPouxBbm-121" value="Sắp xếp sản phẩm" style="ellipse;whiteSpace=wrap;html=1;" vertex="1" parent="1">
          <mxGeometry x="-440" y="1090" width="120" height="50" as="geometry" />
        </mxCell>
        <mxCell id="SgWpKH_g_rVidPouxBbm-130" style="edgeStyle=orthogonalEdgeStyle;rounded=0;orthogonalLoop=1;jettySize=auto;html=1;entryX=0.5;entryY=0;entryDx=0;entryDy=0;" edge="1" parent="1" source="SgWpKH_g_rVidPouxBbm-125" target="SgWpKH_g_rVidPouxBbm-127">
          <mxGeometry relative="1" as="geometry" />
        </mxCell>
        <mxCell id="SgWpKH_g_rVidPouxBbm-132" style="edgeStyle=orthogonalEdgeStyle;rounded=0;orthogonalLoop=1;jettySize=auto;html=1;" edge="1" parent="1" source="SgWpKH_g_rVidPouxBbm-125" target="SgWpKH_g_rVidPouxBbm-131">
          <mxGeometry relative="1" as="geometry" />
        </mxCell>
        <mxCell id="SgWpKH_g_rVidPouxBbm-136" style="edgeStyle=orthogonalEdgeStyle;rounded=0;orthogonalLoop=1;jettySize=auto;html=1;entryX=0;entryY=0.5;entryDx=0;entryDy=0;" edge="1" parent="1" source="SgWpKH_g_rVidPouxBbm-125" target="SgWpKH_g_rVidPouxBbm-135">
          <mxGeometry relative="1" as="geometry" />
        </mxCell>
        <mxCell id="SgWpKH_g_rVidPouxBbm-125" value="Xem danh sách sản phẩm" style="ellipse;whiteSpace=wrap;html=1;" vertex="1" parent="1">
          <mxGeometry x="-175" y="970" width="120" height="50" as="geometry" />
        </mxCell>
        <mxCell id="SgWpKH_g_rVidPouxBbm-133" style="edgeStyle=orthogonalEdgeStyle;rounded=0;orthogonalLoop=1;jettySize=auto;html=1;" edge="1" parent="1" source="SgWpKH_g_rVidPouxBbm-127" target="SgWpKH_g_rVidPouxBbm-131">
          <mxGeometry relative="1" as="geometry" />
        </mxCell>
        <mxCell id="SgWpKH_g_rVidPouxBbm-137" style="edgeStyle=orthogonalEdgeStyle;rounded=0;orthogonalLoop=1;jettySize=auto;html=1;entryX=0.5;entryY=1;entryDx=0;entryDy=0;" edge="1" parent="1" source="SgWpKH_g_rVidPouxBbm-127" target="SgWpKH_g_rVidPouxBbm-135">
          <mxGeometry relative="1" as="geometry">
            <mxPoint x="-60" y="1300" as="targetPoint" />
            <Array as="points">
              <mxPoint x="-220" y="1250" />
              <mxPoint x="-25" y="1250" />
              <mxPoint x="-25" y="1240" />
            </Array>
          </mxGeometry>
        </mxCell>
        <mxCell id="SgWpKH_g_rVidPouxBbm-127" value="Xem chi tiết sản phẩm" style="ellipse;whiteSpace=wrap;html=1;" vertex="1" parent="1">
          <mxGeometry x="-280" y="1090" width="120" height="50" as="geometry" />
        </mxCell>
        <mxCell id="SgWpKH_g_rVidPouxBbm-128" value="Gửi ý kiến đóng góp" style="ellipse;whiteSpace=wrap;html=1;" vertex="1" parent="1">
          <mxGeometry x="-500" y="970" width="120" height="50" as="geometry" />
        </mxCell>
        <mxCell id="SgWpKH_g_rVidPouxBbm-131" value="Thêm giỏ hàng" style="ellipse;whiteSpace=wrap;html=1;" vertex="1" parent="1">
          <mxGeometry x="-90" y="1090" width="120" height="50" as="geometry" />
        </mxCell>
        <mxCell id="SgWpKH_g_rVidPouxBbm-134" value="include" style="endArrow=open;endSize=12;dashed=1;html=1;rounded=0;exitX=0.5;exitY=1;exitDx=0;exitDy=0;entryX=0.781;entryY=0.049;entryDx=0;entryDy=0;entryPerimeter=0;" edge="1" parent="1" source="SgWpKH_g_rVidPouxBbm-80" target="SgWpKH_g_rVidPouxBbm-131">
          <mxGeometry width="160" relative="1" as="geometry">
            <mxPoint x="-70" y="1100" as="sourcePoint" />
            <mxPoint x="90" y="1100" as="targetPoint" />
          </mxGeometry>
        </mxCell>
        <mxCell id="SgWpKH_g_rVidPouxBbm-138" style="edgeStyle=orthogonalEdgeStyle;rounded=0;orthogonalLoop=1;jettySize=auto;html=1;" edge="1" parent="1" source="SgWpKH_g_rVidPouxBbm-135" target="SgWpKH_g_rVidPouxBbm-131">
          <mxGeometry relative="1" as="geometry" />
        </mxCell>
        <mxCell id="SgWpKH_g_rVidPouxBbm-135" value="Thêm danh sách yêu thích" style="ellipse;whiteSpace=wrap;html=1;" vertex="1" parent="1">
          <mxGeometry x="-95" y="1180" width="130" height="60" as="geometry" />
        </mxCell>
        <mxCell id="SgWpKH_g_rVidPouxBbm-139" value="include" style="endArrow=open;endSize=12;dashed=1;html=1;rounded=0;exitX=0.5;exitY=1;exitDx=0;exitDy=0;entryX=1;entryY=0;entryDx=0;entryDy=0;" edge="1" parent="1" source="SgWpKH_g_rVidPouxBbm-80" target="SgWpKH_g_rVidPouxBbm-135">
          <mxGeometry width="160" relative="1" as="geometry">
            <mxPoint x="220" y="940" as="sourcePoint" />
            <mxPoint x="14" y="1102" as="targetPoint" />
          </mxGeometry>
        </mxCell>
        <mxCell id="SgWpKH_g_rVidPouxBbm-141" value="Thanh toán" style="ellipse;whiteSpace=wrap;html=1;" vertex="1" parent="1">
          <mxGeometry x="170" y="1090" width="120" height="50" as="geometry" />
        </mxCell>
        <mxCell id="SgWpKH_g_rVidPouxBbm-143" value="extends" style="endArrow=open;endSize=12;dashed=1;html=1;rounded=0;exitX=1;exitY=0.5;exitDx=0;exitDy=0;entryX=0;entryY=0.5;entryDx=0;entryDy=0;" edge="1" parent="1" source="SgWpKH_g_rVidPouxBbm-131" target="SgWpKH_g_rVidPouxBbm-141">
          <mxGeometry width="160" relative="1" as="geometry">
            <mxPoint x="220" y="940" as="sourcePoint" />
            <mxPoint x="26" y="1199" as="targetPoint" />
          </mxGeometry>
        </mxCell>
        <mxCell id="SgWpKH_g_rVidPouxBbm-144" value="Theo dõi đơn hàng" style="ellipse;whiteSpace=wrap;html=1;" vertex="1" parent="1">
          <mxGeometry x="365" y="1090" width="120" height="50" as="geometry" />
        </mxCell>
        <mxCell id="SgWpKH_g_rVidPouxBbm-145" value="extends" style="endArrow=open;endSize=12;dashed=1;html=1;rounded=0;exitX=1;exitY=0.5;exitDx=0;exitDy=0;entryX=0;entryY=0.5;entryDx=0;entryDy=0;" edge="1" parent="1" source="SgWpKH_g_rVidPouxBbm-141" target="SgWpKH_g_rVidPouxBbm-144">
          <mxGeometry width="160" relative="1" as="geometry">
            <mxPoint x="230" y="950" as="sourcePoint" />
            <mxPoint x="36" y="1209" as="targetPoint" />
          </mxGeometry>
        </mxCell>
        <mxCell id="SgWpKH_g_rVidPouxBbm-146" value="Đánh giá sản phẩm" style="ellipse;whiteSpace=wrap;html=1;" vertex="1" parent="1">
          <mxGeometry x="220" y="1000" width="120" height="50" as="geometry" />
        </mxCell>
        <mxCell id="SgWpKH_g_rVidPouxBbm-147" value="extends" style="endArrow=open;endSize=12;dashed=1;html=1;rounded=0;exitX=0.5;exitY=0;exitDx=0;exitDy=0;entryX=0.5;entryY=1;entryDx=0;entryDy=0;" edge="1" parent="1" source="SgWpKH_g_rVidPouxBbm-144" target="SgWpKH_g_rVidPouxBbm-146">
          <mxGeometry width="160" relative="1" as="geometry">
            <mxPoint x="740" y="910" as="sourcePoint" />
            <mxPoint x="361" y="1039" as="targetPoint" />
          </mxGeometry>
        </mxCell>
        <mxCell id="SgWpKH_g_rVidPouxBbm-149" value="extends" style="endArrow=open;endSize=12;dashed=1;html=1;rounded=0;exitX=0;exitY=0;exitDx=0;exitDy=0;entryX=1;entryY=1;entryDx=0;entryDy=0;" edge="1" parent="1" source="SgWpKH_g_rVidPouxBbm-80" target="SgWpKH_g_rVidPouxBbm-114">
          <mxGeometry width="160" relative="1" as="geometry">
            <mxPoint x="435" y="1100" as="sourcePoint" />
            <mxPoint x="345" y="1050" as="targetPoint" />
          </mxGeometry>
        </mxCell>
        <mxCell id="SgWpKH_g_rVidPouxBbm-151" value="Xem lịch sử đơn hàng" style="ellipse;whiteSpace=wrap;html=1;" vertex="1" parent="1">
          <mxGeometry x="410" y="940" width="120" height="50" as="geometry" />
        </mxCell>
        <mxCell id="SgWpKH_g_rVidPouxBbm-152" value="extends" style="endArrow=open;endSize=12;dashed=1;html=1;rounded=0;exitX=1;exitY=0;exitDx=0;exitDy=0;" edge="1" parent="1" source="SgWpKH_g_rVidPouxBbm-144" target="SgWpKH_g_rVidPouxBbm-151">
          <mxGeometry width="160" relative="1" as="geometry">
            <mxPoint x="445" y="1110" as="sourcePoint" />
            <mxPoint x="355" y="1060" as="targetPoint" />
          </mxGeometry>
        </mxCell>
        <mxCell id="SgWpKH_g_rVidPouxBbm-153" value="extends" style="endArrow=open;endSize=12;dashed=1;html=1;rounded=0;exitX=1;exitY=0.5;exitDx=0;exitDy=0;entryX=0;entryY=0.5;entryDx=0;entryDy=0;" edge="1" parent="1" source="SgWpKH_g_rVidPouxBbm-80" target="SgWpKH_g_rVidPouxBbm-151">
          <mxGeometry width="160" relative="1" as="geometry">
            <mxPoint x="455" y="1120" as="sourcePoint" />
            <mxPoint x="365" y="1070" as="targetPoint" />
          </mxGeometry>
        </mxCell>
      </root>
    </mxGraphModel>
  </diagram>
</mxfile>
